<mxfile host="Electron" agent="Mozilla/5.0 (Macintosh; Intel Mac OS X 10_15_7) AppleWebKit/537.36 (KHTML, like Gecko) draw.io/27.0.5 Chrome/134.0.6998.205 Electron/35.3.0 Safari/537.36" version="27.0.5">
  <diagram name="페이지-1" id="h_YfcMnkHOfwkQnpUoVl">
    <mxGraphModel dx="946" dy="621" grid="1" gridSize="10" guides="1" tooltips="1" connect="1" arrows="1" fold="1" page="1" pageScale="1" pageWidth="827" pageHeight="1169" math="0" shadow="0">
      <root>
        <mxCell id="0" />
        <mxCell id="1" parent="0" />
        <mxCell id="76gAN3OfiHTKWCljHAx4-18" style="edgeStyle=orthogonalEdgeStyle;rounded=0;orthogonalLoop=1;jettySize=auto;html=1;startArrow=classic;startFill=1;" edge="1" parent="1" source="76gAN3OfiHTKWCljHAx4-6" target="76gAN3OfiHTKWCljHAx4-7">
          <mxGeometry relative="1" as="geometry" />
        </mxCell>
        <mxCell id="76gAN3OfiHTKWCljHAx4-6" value="Auth Server" style="sketch=0;outlineConnect=0;fontColor=#232F3E;gradientColor=none;fillColor=#232F3D;strokeColor=none;dashed=0;verticalLabelPosition=bottom;verticalAlign=top;align=center;html=1;fontSize=12;fontStyle=0;aspect=fixed;pointerEvents=1;shape=mxgraph.aws4.traditional_server;" vertex="1" parent="1">
          <mxGeometry x="440" y="200.39999999999998" width="45" height="78" as="geometry" />
        </mxCell>
        <mxCell id="76gAN3OfiHTKWCljHAx4-7" value="mongoDB" style="points=[];aspect=fixed;html=1;align=center;shadow=0;dashed=0;fillColor=#FF6A00;strokeColor=none;shape=mxgraph.alibaba_cloud.mongodb;verticalAlign=top;labelPosition=center;verticalLabelPosition=bottom;" vertex="1" parent="1">
          <mxGeometry x="570" y="282.35" width="52.1" height="52.1" as="geometry" />
        </mxCell>
        <mxCell id="76gAN3OfiHTKWCljHAx4-11" style="edgeStyle=orthogonalEdgeStyle;rounded=0;orthogonalLoop=1;jettySize=auto;html=1;startArrow=classic;startFill=1;" edge="1" parent="1" source="76gAN3OfiHTKWCljHAx4-8" target="76gAN3OfiHTKWCljHAx4-10">
          <mxGeometry relative="1" as="geometry" />
        </mxCell>
        <mxCell id="76gAN3OfiHTKWCljHAx4-8" value="" style="points=[];aspect=fixed;html=1;align=center;shadow=0;dashed=0;fillColor=#FF6A00;strokeColor=none;shape=mxgraph.alibaba_cloud.user;" vertex="1" parent="1">
          <mxGeometry x="180" y="278.4" width="60" height="60" as="geometry" />
        </mxCell>
        <mxCell id="76gAN3OfiHTKWCljHAx4-15" style="edgeStyle=orthogonalEdgeStyle;rounded=0;orthogonalLoop=1;jettySize=auto;html=1;startArrow=classic;startFill=1;" edge="1" parent="1" source="76gAN3OfiHTKWCljHAx4-9" target="76gAN3OfiHTKWCljHAx4-7">
          <mxGeometry relative="1" as="geometry" />
        </mxCell>
        <mxCell id="76gAN3OfiHTKWCljHAx4-9" value="Event Server" style="sketch=0;outlineConnect=0;fontColor=#232F3E;gradientColor=none;fillColor=#232F3D;strokeColor=none;dashed=0;verticalLabelPosition=bottom;verticalAlign=top;align=center;html=1;fontSize=12;fontStyle=0;aspect=fixed;pointerEvents=1;shape=mxgraph.aws4.traditional_server;" vertex="1" parent="1">
          <mxGeometry x="440" y="320" width="45" height="78" as="geometry" />
        </mxCell>
        <mxCell id="76gAN3OfiHTKWCljHAx4-12" style="edgeStyle=orthogonalEdgeStyle;rounded=0;orthogonalLoop=1;jettySize=auto;html=1;" edge="1" parent="1" source="76gAN3OfiHTKWCljHAx4-10" target="76gAN3OfiHTKWCljHAx4-6">
          <mxGeometry relative="1" as="geometry" />
        </mxCell>
        <mxCell id="76gAN3OfiHTKWCljHAx4-13" style="edgeStyle=orthogonalEdgeStyle;rounded=0;orthogonalLoop=1;jettySize=auto;html=1;" edge="1" parent="1" source="76gAN3OfiHTKWCljHAx4-10" target="76gAN3OfiHTKWCljHAx4-9">
          <mxGeometry relative="1" as="geometry" />
        </mxCell>
        <mxCell id="76gAN3OfiHTKWCljHAx4-16" style="edgeStyle=orthogonalEdgeStyle;rounded=0;orthogonalLoop=1;jettySize=auto;html=1;startArrow=classic;startFill=1;" edge="1" parent="1" source="76gAN3OfiHTKWCljHAx4-10" target="76gAN3OfiHTKWCljHAx4-7">
          <mxGeometry relative="1" as="geometry" />
        </mxCell>
        <mxCell id="76gAN3OfiHTKWCljHAx4-10" value="Gateway&lt;div&gt;Server&lt;/div&gt;" style="sketch=0;outlineConnect=0;fontColor=#232F3E;gradientColor=none;fillColor=#232F3D;strokeColor=none;dashed=0;verticalLabelPosition=bottom;verticalAlign=top;align=center;html=1;fontSize=12;fontStyle=0;aspect=fixed;pointerEvents=1;shape=mxgraph.aws4.traditional_server;" vertex="1" parent="1">
          <mxGeometry x="310" y="269.4" width="45" height="78" as="geometry" />
        </mxCell>
      </root>
    </mxGraphModel>
  </diagram>
</mxfile>
